<svg width="61" height="12" viewBox="0 0 61 12" fill="none" xmlns="http://www.w3.org/2000/svg">
<path d="M8.148 10.452H5.364C4.676 10.452 4.048 10.336 3.48 10.104C2.92 9.872 2.44 9.54 2.04 9.108C1.64 8.684 1.328 8.172 1.104 7.572C0.888 6.964 0.78 6.288 0.78 5.544C0.78 4.8 0.892 4.12 1.116 3.504C1.34 2.888 1.656 2.36 2.064 1.92C2.472 1.472 2.964 1.124 3.54 0.875999C4.116 0.628 4.76 0.504 5.472 0.504C6.032 0.504 6.58 0.592 7.116 0.767999C7.652 0.936 8.124 1.204 8.532 1.572C8.948 1.94 9.28 2.42 9.528 3.012C9.784 3.596 9.912 4.3 9.912 5.124C9.912 5.54 9.872 5.932 9.792 6.3C9.72 6.668 9.6 6.992 9.432 7.272C9.264 7.544 9.048 7.764 8.784 7.932C8.52 8.092 8.2 8.172 7.824 8.172C7.44 8.172 7.152 8.076 6.96 7.884C6.768 7.692 6.652 7.444 6.612 7.14H6.564C6.404 7.46 6.208 7.712 5.976 7.896C5.744 8.08 5.444 8.172 5.076 8.172C4.796 8.172 4.528 8.12 4.272 8.016C4.024 7.904 3.804 7.74 3.612 7.524C3.42 7.308 3.268 7.036 3.156 6.708C3.044 6.372 2.988 5.98 2.988 5.532C2.988 5.084 3.044 4.696 3.156 4.368C3.268 4.032 3.42 3.756 3.612 3.54C3.804 3.324 4.024 3.164 4.272 3.06C4.528 2.948 4.796 2.892 5.076 2.892C5.444 2.892 5.736 2.984 5.952 3.168C6.168 3.344 6.332 3.56 6.444 3.816H6.492V3H7.32V6.648C7.32 6.96 7.372 7.172 7.476 7.284C7.588 7.388 7.756 7.44 7.98 7.44C8.356 7.44 8.64 7.248 8.832 6.864C9.024 6.48 9.12 5.952 9.12 5.28V4.728C9.12 4.2 9.024 3.72 8.832 3.288C8.648 2.856 8.392 2.488 8.064 2.184C7.736 1.88 7.348 1.644 6.9 1.476C6.452 1.308 5.972 1.224 5.46 1.224C4.884 1.224 4.36 1.324 3.888 1.524C3.416 1.724 3.008 2.004 2.664 2.364C2.32 2.716 2.052 3.132 1.86 3.612C1.676 4.084 1.584 4.596 1.584 5.148V5.856C1.584 6.424 1.676 6.944 1.86 7.416C2.044 7.888 2.3 8.296 2.628 8.64C2.964 8.984 3.364 9.248 3.828 9.432C4.292 9.624 4.808 9.72 5.376 9.72H8.148V10.452ZM5.244 7.38C5.668 7.38 5.98 7.28 6.18 7.08C6.388 6.88 6.492 6.596 6.492 6.228V4.764C6.492 4.46 6.392 4.204 6.192 3.996C5.992 3.788 5.676 3.684 5.244 3.684C4.812 3.684 4.496 3.808 4.296 4.056C4.096 4.304 3.996 4.636 3.996 5.052V6.012C3.996 6.428 4.096 6.76 4.296 7.008C4.496 7.256 4.812 7.38 5.244 7.38ZM14.0115 9.144C13.5795 9.144 13.1915 9.068 12.8475 8.916C12.5035 8.764 12.2115 8.548 11.9715 8.268C11.7395 7.988 11.5595 7.648 11.4315 7.248C11.3115 6.848 11.2515 6.4 11.2515 5.904C11.2515 5.408 11.3115 4.96 11.4315 4.56C11.5595 4.16 11.7395 3.82 11.9715 3.54C12.2115 3.26 12.5035 3.044 12.8475 2.892C13.1915 2.74 13.5795 2.664 14.0115 2.664C14.6275 2.664 15.1195 2.8 15.4875 3.072C15.8635 3.336 16.1435 3.684 16.3275 4.116L15.5235 4.524C15.4115 4.204 15.2275 3.956 14.9715 3.78C14.7155 3.604 14.3955 3.516 14.0115 3.516C13.7235 3.516 13.4715 3.564 13.2555 3.66C13.0395 3.748 12.8595 3.876 12.7155 4.044C12.5715 4.204 12.4635 4.4 12.3915 4.632C12.3195 4.856 12.2835 5.104 12.2835 5.376V6.432C12.2835 6.976 12.4275 7.424 12.7155 7.776C13.0115 8.12 13.4435 8.292 14.0115 8.292C14.7875 8.292 15.3475 7.932 15.6915 7.212L16.3875 7.68C16.1875 8.128 15.8875 8.484 15.4875 8.748C15.0955 9.012 14.6035 9.144 14.0115 9.144ZM20.0123 9.144C19.5963 9.144 19.2163 9.068 18.8723 8.916C18.5283 8.764 18.2323 8.548 17.9843 8.268C17.7443 7.98 17.5563 7.64 17.4203 7.248C17.2843 6.848 17.2163 6.4 17.2163 5.904C17.2163 5.416 17.2843 4.972 17.4203 4.572C17.5563 4.172 17.7443 3.832 17.9843 3.552C18.2323 3.264 18.5283 3.044 18.8723 2.892C19.2163 2.74 19.5963 2.664 20.0123 2.664C20.4283 2.664 20.8043 2.74 21.1403 2.892C21.4843 3.044 21.7803 3.264 22.0283 3.552C22.2763 3.832 22.4683 4.172 22.6043 4.572C22.7403 4.972 22.8083 5.416 22.8083 5.904C22.8083 6.4 22.7403 6.848 22.6043 7.248C22.4683 7.64 22.2763 7.98 22.0283 8.268C21.7803 8.548 21.4843 8.764 21.1403 8.916C20.8043 9.068 20.4283 9.144 20.0123 9.144ZM20.0123 8.292C20.5323 8.292 20.9563 8.132 21.2843 7.812C21.6123 7.492 21.7763 7.004 21.7763 6.348V5.46C21.7763 4.804 21.6123 4.316 21.2843 3.996C20.9563 3.676 20.5323 3.516 20.0123 3.516C19.4923 3.516 19.0683 3.676 18.7403 3.996C18.4123 4.316 18.2483 4.804 18.2483 5.46V6.348C18.2483 7.004 18.4123 7.492 18.7403 7.812C19.0683 8.132 19.4923 8.292 20.0123 8.292ZM24.3872 2.808H25.3472V3.816H25.3952C25.5552 3.424 25.7872 3.136 26.0912 2.952C26.4032 2.76 26.7752 2.664 27.2072 2.664C27.5912 2.664 27.9392 2.74 28.2512 2.892C28.5632 3.044 28.8272 3.26 29.0432 3.54C29.2672 3.82 29.4352 4.16 29.5472 4.56C29.6672 4.96 29.7272 5.408 29.7272 5.904C29.7272 6.4 29.6672 6.848 29.5472 7.248C29.4352 7.648 29.2672 7.988 29.0432 8.268C28.8272 8.548 28.5632 8.764 28.2512 8.916C27.9392 9.068 27.5912 9.144 27.2072 9.144C26.3672 9.144 25.7632 8.76 25.3952 7.992H25.3472V11.4H24.3872V2.808ZM26.9432 8.28C27.4872 8.28 27.9152 8.112 28.2272 7.776C28.5392 7.432 28.6952 6.984 28.6952 6.432V5.376C28.6952 4.824 28.5392 4.38 28.2272 4.044C27.9152 3.7 27.4872 3.528 26.9432 3.528C26.7272 3.528 26.5192 3.56 26.3192 3.624C26.1272 3.68 25.9592 3.76 25.8152 3.864C25.6712 3.968 25.5552 4.096 25.4672 4.248C25.3872 4.392 25.3472 4.548 25.3472 4.716V7.02C25.3472 7.22 25.3872 7.4 25.4672 7.56C25.5552 7.712 25.6712 7.844 25.8152 7.956C25.9592 8.06 26.1272 8.14 26.3192 8.196C26.5192 8.252 26.7272 8.28 26.9432 8.28ZM35.1055 2.808H36.0535L33.2815 10.44C33.2095 10.624 33.1375 10.776 33.0655 10.896C32.9935 11.024 32.9055 11.124 32.8015 11.196C32.6975 11.268 32.5655 11.32 32.4055 11.352C32.2535 11.384 32.0655 11.4 31.8415 11.4H31.3495V10.56H32.3215L32.7895 9.24L30.4735 2.808H31.4335L32.9215 7.02L33.2095 8.028H33.2695L33.6055 7.02L35.1055 2.808ZM37.2778 9V2.808H38.2378V3.948H38.2978C38.4098 3.652 38.6098 3.388 38.8978 3.156C39.1858 2.924 39.5818 2.808 40.0858 2.808H40.4578V3.768H39.8938C39.3738 3.768 38.9658 3.868 38.6698 4.068C38.3818 4.26 38.2378 4.504 38.2378 4.8V9H37.2778ZM42.1641 1.356C41.9561 1.356 41.8041 1.308 41.7081 1.212C41.6201 1.108 41.5761 0.975999 41.5761 0.816V0.659999C41.5761 0.5 41.6201 0.372 41.7081 0.275999C41.8041 0.172 41.9561 0.12 42.1641 0.12C42.3721 0.12 42.5201 0.172 42.6081 0.275999C42.7041 0.372 42.7521 0.5 42.7521 0.659999V0.816C42.7521 0.975999 42.7041 1.108 42.6081 1.212C42.5201 1.308 42.3721 1.356 42.1641 1.356ZM41.6841 2.808H42.6441V9H41.6841V2.808ZM49.9041 9.684C49.9041 10.324 49.6521 10.792 49.1481 11.088C48.6521 11.392 47.9041 11.544 46.9041 11.544C45.9361 11.544 45.2401 11.412 44.8161 11.148C44.3921 10.884 44.1801 10.508 44.1801 10.02C44.1801 9.684 44.2681 9.42 44.4441 9.228C44.6201 9.044 44.8601 8.908 45.1641 8.82V8.688C44.7961 8.512 44.6121 8.224 44.6121 7.824C44.6121 7.512 44.7121 7.276 44.9121 7.116C45.1121 6.948 45.3681 6.824 45.6801 6.744V6.696C45.3121 6.52 45.0241 6.268 44.8161 5.94C44.6161 5.612 44.5161 5.232 44.5161 4.8C44.5161 4.488 44.5721 4.2 44.6841 3.936C44.7961 3.672 44.9521 3.448 45.1521 3.264C45.3601 3.072 45.6041 2.924 45.8841 2.82C46.1721 2.716 46.4921 2.664 46.8441 2.664C47.2841 2.664 47.6761 2.744 48.0201 2.904V2.796C48.0201 2.556 48.0761 2.36 48.1881 2.208C48.3001 2.048 48.4841 1.968 48.7401 1.968H49.6641V2.808H48.4881V3.204C48.7121 3.396 48.8841 3.628 49.0041 3.9C49.1321 4.164 49.1961 4.464 49.1961 4.8C49.1961 5.112 49.1401 5.4 49.0281 5.664C48.9161 5.928 48.7561 6.156 48.5481 6.348C48.3481 6.532 48.1041 6.676 47.8161 6.78C47.5281 6.884 47.2081 6.936 46.8561 6.936C46.6561 6.936 46.4561 6.916 46.2561 6.876C46.0481 6.932 45.8601 7.016 45.6921 7.128C45.5241 7.232 45.4401 7.38 45.4401 7.572C45.4401 7.756 45.5281 7.88 45.7041 7.944C45.8801 8.008 46.1081 8.04 46.3881 8.04H47.7081C48.4761 8.04 49.0321 8.188 49.3761 8.484C49.7281 8.772 49.9041 9.172 49.9041 9.684ZM49.0041 9.756C49.0041 9.508 48.9081 9.308 48.7161 9.156C48.5321 9.012 48.2001 8.94 47.7201 8.94H45.6561C45.2721 9.116 45.0801 9.396 45.0801 9.78C45.0801 10.052 45.1801 10.284 45.3801 10.476C45.5881 10.668 45.9361 10.764 46.4241 10.764H47.3121C47.8481 10.764 48.2641 10.68 48.5601 10.512C48.8561 10.344 49.0041 10.092 49.0041 9.756ZM46.8561 6.168C47.2641 6.168 47.5881 6.072 47.8281 5.88C48.0681 5.68 48.1881 5.376 48.1881 4.968V4.632C48.1881 4.224 48.0681 3.924 47.8281 3.732C47.5881 3.532 47.2641 3.432 46.8561 3.432C46.4481 3.432 46.1241 3.532 45.8841 3.732C45.6441 3.924 45.5241 4.224 45.5241 4.632V4.968C45.5241 5.376 45.6441 5.68 45.8841 5.88C46.1241 6.072 46.4481 6.168 46.8561 6.168ZM51.0239 0.12H51.9839V3.816H52.0319C52.1839 3.464 52.3959 3.184 52.6679 2.976C52.9479 2.768 53.3199 2.664 53.7839 2.664C54.4239 2.664 54.9279 2.872 55.2959 3.288C55.6719 3.696 55.8599 4.276 55.8599 5.028V9H54.8999V5.196C54.8999 4.084 54.4319 3.528 53.4959 3.528C53.3039 3.528 53.1159 3.552 52.9319 3.6C52.7559 3.648 52.5959 3.72 52.4519 3.816C52.3079 3.912 52.1919 4.036 52.1039 4.188C52.0239 4.332 51.9839 4.504 51.9839 4.704V9H51.0239V0.12ZM59.2122 9C58.8762 9 58.6202 8.908 58.4442 8.724C58.2762 8.532 58.1922 8.284 58.1922 7.98V3.648H57.1722V2.808H57.7482C57.9562 2.808 58.0962 2.768 58.1682 2.688C58.2482 2.6 58.2882 2.452 58.2882 2.244V1.092H59.1522V2.808H60.5082V3.648H59.1522V8.16H60.4122V9H59.2122Z" fill="white"/>
</svg>
